<svg width="50" height="50" viewBox="0 0 50 50" fill="none" xmlns="http://www.w3.org/2000/svg">
<g id="calendar-5 1" clip-path="url(#clip0_49_750)">
<g id="Group">
<path id="Vector" d="M31.3436 49.2676H9.60762C6.10479 49.2676 3.26514 46.4279 3.26514 42.9251V14.2313C3.26514 9.83985 6.8252 6.27988 11.2166 6.27988H38.7837C43.1752 6.27988 46.7352 9.83985 46.7352 14.2313V33.876C46.7352 42.3766 39.844 49.2676 31.3436 49.2676Z" fill="#FBF1CF"/>
<path id="Vector_2" d="M46.7353 20.9693H15.3452C14.7554 14.8876 14.895 9.8125 14.895 8.09189V6.27979H11.2166C6.8251 6.27979 3.26514 9.83975 3.26514 14.2312V42.925C3.26514 46.4278 6.10479 49.2675 9.60762 49.2675H29.1316C20.3827 45.1393 16.9862 33.7488 15.6805 23.8989H46.7352L46.7353 20.9693Z" fill="#FAE0BD"/>
<path id="Vector_3" d="M26.6022 25.6984H23.3979C22.7051 25.6984 22.1436 26.2601 22.1436 26.9527V30.1571C22.1436 30.8499 22.7051 31.4114 23.3979 31.4114H26.6022C27.295 31.4114 27.8565 30.8499 27.8565 30.1571V26.9527C27.8564 26.2601 27.2949 25.6984 26.6022 25.6984Z" fill="#98CD64"/>
<path id="Vector_4" d="M13.6408 25.6984H10.4364C9.74375 25.6984 9.18213 26.2601 9.18213 26.9527V30.1571C9.18213 30.8499 9.74365 31.4114 10.4364 31.4114H13.6408C14.3336 31.4114 14.8951 30.8499 14.8951 30.1571V26.9527C14.8951 26.2601 14.3335 25.6984 13.6408 25.6984Z" fill="#B0ADE2"/>
<path id="Vector_5" d="M36.3598 25.6984H39.5642C40.2569 25.6984 40.8185 26.2601 40.8185 26.9527V30.1571C40.8185 30.8499 40.2569 31.4114 39.5642 31.4114H36.3598C35.6671 31.4114 35.1055 30.8499 35.1055 30.1571V26.9527C35.1055 26.2601 35.6671 25.6984 36.3598 25.6984Z" fill="#F8D2E3"/>
<path id="Vector_6" d="M26.6022 35.8377H23.3979C22.7051 35.8377 22.1436 36.3992 22.1436 37.092V40.2964C22.1436 40.9892 22.7051 41.5507 23.3979 41.5507H26.6022C27.295 41.5507 27.8565 40.9892 27.8565 40.2964V37.092C27.8564 36.3993 27.2949 35.8377 26.6022 35.8377Z" fill="#A2DDFD"/>
<path id="Vector_7" d="M13.6408 35.8377H10.4364C9.74375 35.8377 9.18213 36.3992 9.18213 37.092V40.2964C9.18213 40.9892 9.74365 41.5507 10.4364 41.5507H13.6408C14.3336 41.5507 14.8951 40.9892 14.8951 40.2964V37.092C14.8951 36.3993 14.3335 35.8377 13.6408 35.8377Z" fill="#8DE1CE"/>
<path id="Vector_8" d="M36.3598 35.8377H39.5642C40.2569 35.8377 40.8185 36.3992 40.8185 37.092V40.2964C40.8185 40.9892 40.2569 41.5507 39.5642 41.5507H36.3598C35.6671 41.5507 35.1055 40.9892 35.1055 40.2964V37.092C35.1055 36.3993 35.6671 35.8377 36.3598 35.8377Z" fill="#DAA985"/>
<path id="Vector_9" d="M38.7836 6.27979H11.2166C6.8251 6.27979 3.26514 9.83975 3.26514 14.2312V20.9692H46.7352V14.2312C46.7352 9.83984 43.1751 6.27979 38.7836 6.27979Z" fill="#E7889D"/>
<path id="Vector_10" d="M14.895 8.0918V6.27979H11.2166C6.8251 6.27979 3.26514 9.83975 3.26514 14.2312V20.9692H15.3451C14.7553 14.8876 14.895 9.8124 14.895 8.0918Z" fill="#E16E7E"/>
<path id="Vector_11" d="M46.7354 33.876C46.7354 37.4733 44.1913 38.1463 41.9565 38.1463C38.4537 38.1463 35.6141 40.9859 35.6141 44.4888C35.6141 46.7235 34.9411 49.2676 31.3438 49.2676C39.8442 49.2676 46.7354 42.3766 46.7354 33.876Z" fill="#FAE0BD"/>
<g id="Group_2">
<path id="Vector_12" d="M12.0387 10.9483C10.461 10.9483 9.18213 9.66943 9.18213 8.0918V3.58887C9.18213 2.01123 10.461 0.732422 12.0387 0.732422C13.6163 0.732422 14.8951 2.01133 14.8951 3.58887V8.0918C14.8952 9.66943 13.6163 10.9483 12.0387 10.9483Z" fill="#4E5660"/>
<path id="Vector_13" d="M25.0005 10.9483C23.4229 10.9483 22.144 9.66943 22.144 8.0918V3.58887C22.144 2.01123 23.4229 0.732422 25.0005 0.732422C26.5781 0.732422 27.857 2.01133 27.857 3.58887V8.0918C27.8569 9.66943 26.5781 10.9483 25.0005 10.9483Z" fill="#4E5660"/>
<path id="Vector_14" d="M37.9619 10.9483C39.5396 10.9483 40.8185 9.66943 40.8185 8.0918V3.58887C40.8185 2.01123 39.5396 0.732422 37.9619 0.732422C36.3843 0.732422 35.1055 2.01133 35.1055 3.58887V8.0918C35.1054 9.66943 36.3843 10.9483 37.9619 10.9483Z" fill="#4E5660"/>
</g>
<g id="Group_3">
<g id="Group_4">
<path id="Vector_15" d="M17.231 19.9509C18.8142 19.9509 20.0977 18.9288 20.0977 17.668C20.0977 16.4072 18.8142 15.3851 17.231 15.3851C15.6477 15.3851 14.3643 16.4072 14.3643 17.668C14.3643 18.9288 15.6477 19.9509 17.231 19.9509Z" fill="white"/>
<path id="Vector_16" d="M32.7695 19.9509C34.3528 19.9509 35.6362 18.9288 35.6362 17.668C35.6362 16.4072 34.3528 15.3851 32.7695 15.3851C31.1863 15.3851 29.9028 16.4072 29.9028 17.668C29.9028 18.9288 31.1863 19.9509 32.7695 19.9509Z" fill="white"/>
</g>
</g>
<path id="Vector_17" d="M15.6274 40.2965V37.0921C15.6274 35.9966 14.7362 35.1054 13.6407 35.1054H10.4363C9.34082 35.1054 8.44961 35.9966 8.44961 37.0921V40.2965C8.44961 41.392 9.34082 42.2832 10.4363 42.2832H13.6407C14.7363 42.2831 15.6274 41.3919 15.6274 40.2965ZM9.91445 40.2965V37.0921C9.91445 36.8044 10.1485 36.5702 10.4363 36.5702H13.6407C13.9284 36.5702 14.1626 36.8044 14.1626 37.0921V40.2965C14.1626 40.5842 13.9285 40.8184 13.6407 40.8184H10.4363C10.1486 40.8183 9.91445 40.5842 9.91445 40.2965ZM10.4363 32.1438H13.6407C14.7362 32.1438 15.6274 31.2526 15.6274 30.1571V26.9526C15.6274 25.8571 14.7362 24.9659 13.6407 24.9659H10.4363C9.34082 24.9659 8.44961 25.8571 8.44961 26.9526V30.1571C8.44961 31.2526 9.34082 32.1438 10.4363 32.1438ZM9.91445 26.9527C9.91445 26.665 10.1485 26.4309 10.4363 26.4309H13.6407C13.9284 26.4309 14.1626 26.6649 14.1626 26.9527V30.1572C14.1626 30.4449 13.9285 30.6791 13.6407 30.6791H10.4363C10.1486 30.6791 9.91445 30.445 9.91445 30.1572V26.9527ZM26.0559 14.9544C25.7894 15.2602 25.4046 15.4355 25.0002 15.4355C24.5958 15.4355 24.211 15.2602 23.9445 14.9544C23.6788 14.6493 23.2161 14.6177 22.9112 14.8834C22.6062 15.1491 22.5744 15.6118 22.8401 15.9167C23.3849 16.5419 24.1722 16.9004 25.0001 16.9004C25.828 16.9004 26.6153 16.5419 27.1601 15.9167C27.4259 15.6118 27.394 15.1491 27.089 14.8834C26.7842 14.6177 26.3215 14.6492 26.0559 14.9544ZM46.7352 13.9514C46.3306 13.9514 46.0027 14.2792 46.0027 14.6838V20.2368H3.99766V14.2312C3.99766 11.2845 5.78691 8.66611 8.44971 7.56289V8.0918C8.44971 10.0707 10.0597 11.6807 12.0387 11.6807C14.0176 11.6807 15.6275 10.0707 15.6275 8.0918V7.0123H21.4113V8.0918C21.4113 10.0707 23.0213 11.6807 25.0003 11.6807C26.9792 11.6807 28.5892 10.0707 28.5892 8.0918V7.0123H34.373V8.0918C34.373 10.0707 35.983 11.6807 37.9619 11.6807C39.9409 11.6807 41.5509 10.0707 41.5509 8.0918V7.56377C43.3216 8.30107 44.7554 9.73232 45.4817 11.5326C45.6335 11.9089 46.061 12.0887 46.4351 11.9377C46.8102 11.7863 46.9915 11.3596 46.8401 10.9844C45.891 8.63223 43.9376 6.80332 41.5509 5.99971V3.58896C41.5508 1.60996 39.9407 0 37.9618 0C35.9829 0 34.3729 1.60996 34.3729 3.58896V5.54746H28.5891V3.58896C28.5891 1.60996 26.9791 0 25.0002 0C23.0212 0 21.4112 1.60996 21.4112 3.58896V5.54746H15.6274V3.58896C15.6274 1.60996 14.0175 0 12.0386 0C10.0596 0 8.44961 1.60996 8.44961 3.58896V6.00068C4.93906 7.17822 2.53271 10.4838 2.53271 14.2313V42.9251C2.53271 46.0323 4.52285 48.7452 7.48477 49.6758C7.87139 49.7975 8.28203 49.5815 8.40303 49.1966C8.52422 48.8106 8.30967 48.3995 7.92383 48.2783C5.57539 47.5405 3.99756 45.3893 3.99756 42.9252V21.7018H46.0027V33.876C46.0027 36.3229 44.7548 37.414 41.9563 37.414C41.8201 37.414 41.6851 37.4188 41.5507 37.4264V37.0921C41.5507 35.9966 40.6595 35.1054 39.564 35.1054H36.3596C35.2641 35.1054 34.3729 35.9966 34.3729 37.0921V40.2965C34.3729 41.0118 34.7613 41.6438 35.3372 41.9936C35.0435 42.7701 34.8814 43.6107 34.8814 44.4889C34.8814 47.2872 33.7903 48.5353 31.3435 48.5353H11.2672C10.8626 48.5353 10.5348 48.8631 10.5348 49.2677C10.5348 49.6723 10.8626 50.0001 11.2672 50.0001H31.3437C40.2345 50.0001 47.4676 42.7669 47.4676 33.8761V14.6838C47.4676 14.2793 47.1397 13.9514 46.7352 13.9514ZM35.8378 3.58896C35.8378 2.41777 36.7906 1.46484 37.9618 1.46484C39.133 1.46484 40.0859 2.41777 40.0859 3.58896V8.0918C40.0859 9.26299 39.133 10.2158 37.9618 10.2158C36.7906 10.2158 35.8378 9.26299 35.8378 8.0918V3.58896ZM22.8761 3.58896C22.8761 2.41777 23.829 1.46484 25.0002 1.46484C26.1714 1.46484 27.1242 2.41777 27.1242 3.58896V8.0918C27.1242 9.26299 26.1714 10.2158 25.0002 10.2158C23.829 10.2158 22.8761 9.26299 22.8761 8.0918V3.58896ZM9.91445 3.58896C9.91445 2.41777 10.8674 1.46484 12.0386 1.46484C13.2098 1.46484 14.1626 2.41777 14.1626 3.58896V8.0918C14.1626 9.26299 13.2098 10.2158 12.0386 10.2158C10.8674 10.2158 9.91445 9.26299 9.91445 8.0918V3.58896ZM35.8378 37.092C35.8378 36.8043 36.0719 36.5701 36.3597 36.5701H39.5641C39.8518 36.5701 40.0859 36.8043 40.0859 37.092V37.6667C38.3832 38.1342 36.9361 39.2229 36.0032 40.6734C35.9021 40.5781 35.8378 40.4444 35.8378 40.2964V37.092ZM35.5715 47.9127C36.0495 47.0986 36.3464 45.9902 36.3464 44.4888C36.3464 41.3953 38.8631 38.8787 41.9564 38.8787C43.4578 38.8787 44.5663 38.5819 45.3804 38.1039C43.9653 42.7929 40.2604 46.4978 35.5715 47.9127ZM18.1692 14.2984V15.4703C18.1692 15.8749 18.4971 16.2027 18.9017 16.2027C19.3062 16.2027 19.6341 15.8749 19.6341 15.4703V14.2984C19.6341 13.8938 19.3062 13.566 18.9017 13.566C18.4971 13.566 18.1692 13.8938 18.1692 14.2984ZM30.3662 14.2984V15.4703C30.3662 15.8749 30.694 16.2027 31.0986 16.2027C31.5032 16.2027 31.8311 15.8749 31.8311 15.4703V14.2984C31.8311 13.8938 31.5032 13.566 31.0986 13.566C30.6941 13.566 30.3662 13.8938 30.3662 14.2984ZM36.3596 32.1438H39.564C40.6595 32.1438 41.5507 31.2526 41.5507 30.1571V26.9526C41.5507 25.8571 40.6595 24.9659 39.564 24.9659H36.3596C35.2641 24.9659 34.3729 25.8571 34.3729 26.9526V30.1571C34.3729 31.2526 35.2642 32.1438 36.3596 32.1438ZM35.8378 26.9527C35.8378 26.665 36.0719 26.4309 36.3597 26.4309H39.5641C39.8518 26.4309 40.0859 26.6649 40.0859 26.9527V30.1572C40.0859 30.4449 39.8519 30.6791 39.5641 30.6791H36.3596C36.0719 30.6791 35.8377 30.445 35.8377 30.1572L35.8378 26.9527ZM21.4112 40.2965C21.4112 41.392 22.3025 42.2832 23.398 42.2832H26.6024C27.698 42.2832 28.5892 41.392 28.5892 40.2965V37.0921C28.5892 35.9966 27.698 35.1054 26.6024 35.1054H23.398C22.3025 35.1054 21.4112 35.9966 21.4112 37.0921V40.2965ZM22.8761 37.092C22.8761 36.8043 23.1103 36.5701 23.398 36.5701H26.6024C26.8901 36.5701 27.1243 36.8043 27.1243 37.092V40.2964C27.1243 40.5841 26.8902 40.8183 26.6024 40.8183H23.398C23.1103 40.8183 22.8761 40.5842 22.8761 40.2964V37.092ZM23.398 32.1438H26.6024C27.698 32.1438 28.5892 31.2526 28.5892 30.1571V26.9526C28.5892 25.8571 27.698 24.9659 26.6024 24.9659H23.398C22.3025 24.9659 21.4112 25.8571 21.4112 26.9526V30.1571C21.4112 31.2526 22.3025 32.1438 23.398 32.1438ZM22.8761 26.9527C22.8761 26.665 23.1103 26.4309 23.398 26.4309H26.6024C26.8901 26.4309 27.1243 26.6649 27.1243 26.9527V30.1572C27.1243 30.4449 26.8902 30.6791 26.6024 30.6791H23.398C23.1103 30.6791 22.8761 30.445 22.8761 30.1572V26.9527Z" fill="black"/>
</g>
</g>
<defs>
<clipPath id="clip0_49_750">
<rect width="50" height="50" fill="white"/>
</clipPath>
</defs>
</svg>
